<svg xmlns="http://www.w3.org/2000/svg" xmlns:xlink="http://www.w3.org/1999/xlink" width="2000" height="1298" viewBox="0 0 2000 1298"><defs><clipPath id="a"><rect width="2000" height="1298" fill="none"/></clipPath></defs><g clip-path="url(#a)"><path d="M464.352,105.48v-.142c0-16.027,13.78-29.576,31.27-29.576,17.39,0,30.911,13.4,30.911,29.4v.175c0,15.994-13.722,29.588-31.14,29.588-17.39,0-31.04-13.419-31.04-29.447m58.616-.142v-.175c0-14.387-11.8-26.225-27.347-26.225-15.766,0-27.618,12.026-27.618,26.4v.142c0,14.433,11.781,26.183,27.389,26.183,15.749,0,27.576-11.938,27.576-26.325m-41.126-16.49h15.316c5.3,0,8.855,1.306,11.23,3.505a9.294,9.294,0,0,1,2.784,7.1v.175c0,4.824-2.637,7.953-6.74,9.605l7.942,10.941H501.74l-6.681-9.535h-4.015v9.535h-9.2Zm15.186,15c3.217,0,5-1.377,5-3.639v-.2c0-2.491-2.045-3.709-5.041-3.709h-5.943v7.548Z" transform="translate(1473.468 240.368)" fill="#767370"/><path d="M902.97,596.237c0-253.423-153.681-472.792-377.6-579.625-223.945,106.833-377.555,326.2-377.555,579.625,0,253.552,153.61,472.821,377.555,579.725,223.92-106.829,377.6-326.173,377.6-579.725" transform="translate(469.039 52.704)" fill="#767370"/><path d="M616.849,648.942c0-253.423,153.623-472.792,377.572-579.625A715.842,715.842,0,0,0,686.015,0C307.112,0,0,290.589,0,648.942,0,1007.4,307.112,1298,686.015,1298a715.188,715.188,0,0,0,308.406-69.333c-223.949-106.9-377.572-326.173-377.572-579.725" transform="translate(0 0)" fill="#53ad92"/><path d="M546.619,0a715.342,715.342,0,0,0-308.33,69.3c223.9,106.862,377.584,326.2,377.584,579.654,0,253.523-153.681,472.88-377.584,579.7,92.715,44.222,197.387,69.3,308.33,69.3,378.89,0,685.986-290.56,685.986-649C1232.605,290.59,925.552,0,546.619,0" transform="translate(756.131 0.003)" fill="#ed9500"/><path d="M155.027,302.553V290.164c-5.433,7.244-15.086,14.141-30.055,14.141-14.665,0-30.372-7.795-30.372-23.3v-.259c0-15.476,14.043-24.2,34.387-24.2a100.338,100.338,0,0,1,26.041,3.23v-3.23c0-14.984-9.765-22.8-25.895-22.8-9.536,0-17.348,2.554-24.651,5.988l-2.784-6.159c8.609-3.885,17.16-6.476,27.939-6.476,20.131,0,32.739,9.923,32.739,29.15v46.3Zm.117-36.21a110.5,110.5,0,0,0-26.679-3.418c-16.534,0-25.765,6.981-25.765,17.371v.234c0,10.866,10.783,17.125,22.752,17.125,15.971,0,29.692-9.347,29.692-22.85Z" transform="translate(300.179 720.535)" fill="#fff"/><path d="M162.533,304.724c-22.635,0-40.012-17.763-40.012-38.6v-.246c0-20.851,17.494-38.9,40.012-38.9,14.765,0,24.012,6.359,31.386,13.661l-5.388,5.233c-6.8-6.493-14.493-12.188-26.174-12.188a31.409,31.409,0,0,0-31.649,31.863v.334a32.079,32.079,0,0,0,32.229,32.2c11.1,0,19.768-5.362,26.45-12.4l5.171,4.344c-8.013,8.608-17.561,14.709-32.025,14.709" transform="translate(388.78 720.116)" fill="#fff"/><path d="M188.3,298.045c12.127,0,20.49-5.128,26.938-11.65l5.2,4.394c-7.971,8.153-17.377,13.966-32.488,13.966-20.578,0-38.46-15.589-38.46-38.731v-.346c0-21.5,15.983-38.7,37.271-38.7,22.026,0,36.023,16.908,36.023,38.9v.246a15.727,15.727,0,0,1-.159,2.625H157.479c1.39,18.531,15.4,29.3,30.823,29.3m26.316-35.7c-1.073-14.967-10.157-28.833-28.215-28.833-15.549,0-27.535,12.343-28.924,28.833Z" transform="translate(474.376 720.12)" fill="#fff"/><path d="M294.995,302.972V258.879c0-16.023-8.751-25.37-23.274-25.37-13.229,0-24.793,9.605-24.793,26.271v43.191H239.3V258.445c0-15.518-8.826-24.936-22.836-24.936-14.043,0-25.1,11.65-25.1,26.688v42.774h-7.533V228.744h7.533v13.24c5.058-7.807,12.161-15.009,26.2-15.009,13.68,0,22.114,7.448,26.416,15.952,5.116-8.17,13.609-15.952,28.373-15.952,18.637,0,30.2,12.4,30.2,30.995v45Z" transform="translate(583.337 720.116)" fill="#fff"/><path d="M262.722,298.045c12.186,0,20.5-5.128,26.921-11.65l5.262,4.394c-7.942,8.153-17.4,13.966-32.488,13.966-20.636,0-38.46-15.589-38.46-38.731v-.346c0-21.5,16.042-38.7,37.241-38.7,22.026,0,36.04,16.908,36.04,38.9v.246a21.285,21.285,0,0,1-.117,2.625H231.97c1.377,18.531,15.391,29.3,30.752,29.3m26.387-35.7c-1.043-14.967-10.216-28.833-28.2-28.833-15.533,0-27.56,12.343-28.937,28.833Z" transform="translate(710.657 720.12)" fill="#fff"/><path d="M286.638,321.066c-12.144,0-22.072-6.246-22.072-20.388l.029-48.7H253.19V245.49H264.6V221.7h7.537V245.49h27.606v6.489H272.132V299.94c0,10.594,6.664,14.417,15.7,14.417a27.437,27.437,0,0,0,11.577-2.608v6.71a29.953,29.953,0,0,1-12.766,2.608" transform="translate(803.415 703.374)" fill="#fff"/><path d="M336.4,302.553V290.164c-5.479,7.244-15.1,14.141-30.043,14.141-14.635,0-30.343-7.795-30.343-23.3v-.259c0-15.476,14.013-24.2,34.358-24.2a99.99,99.99,0,0,1,26.028,3.23v-3.23c0-14.984-9.64-22.8-25.882-22.8-9.507,0-17.348,2.554-24.651,5.988l-2.783-6.159c8.638-3.885,17.189-6.476,27.91-6.476,20.131,0,32.809,9.923,32.809,29.15v46.3Zm.1-36.21a109.93,109.93,0,0,0-26.608-3.418c-16.634,0-25.836,6.981-25.836,17.371v.234c0,10.866,10.838,17.125,22.781,17.125,16.012,0,29.663-9.347,29.663-22.85Z" transform="translate(875.827 720.535)" fill="#fff"/><path d="M348.991,304.724c-22.664,0-40.054-17.763-40.054-38.6v-.246c0-20.851,17.607-38.9,40.054-38.9,14.823,0,24.083,6.359,31.5,13.661l-5.433,5.233c-6.811-6.493-14.519-12.188-26.187-12.188A31.5,31.5,0,0,0,317.1,265.543v.334a32.191,32.191,0,0,0,32.4,32.2c11.046,0,19.668-5.362,26.3-12.4l5.291,4.344c-8.017,8.608-17.581,14.709-32.1,14.709" transform="translate(980.31 720.116)" fill="#fff"/><path d="M337.815,220.408h9.39v9.735h-9.39Zm.914,29.167h7.478V323.8h-7.478Z" transform="translate(1071.944 699.282)" fill="#fff"/><path d="M413.147,302.972V258.879c0-15.3-9.085-25.37-24.968-25.37-15.391,0-27.23,11.041-27.23,26.517v42.945h-7.52V228.744h7.52v13.849c5.275-8.838,13.984-15.618,28.361-15.618,19.839,0,31.374,12.81,31.374,30.586v45.411Z" transform="translate(1121.49 720.116)" fill="#fff"/><path d="M441.311,302.553V290.164c-5.375,7.244-15.144,14.141-30.084,14.141-14.635,0-30.255-7.795-30.255-23.3v-.259c0-15.476,13.938-24.2,34.27-24.2a100.406,100.406,0,0,1,26.07,3.23v-3.23c0-14.984-9.736-22.8-25.894-22.8a56.108,56.108,0,0,0-24.651,5.988l-2.725-6.159c8.551-3.885,17.06-6.476,27.856-6.476,20.156,0,32.776,9.923,32.776,29.15v46.3Zm.146-36.21a110.649,110.649,0,0,0-26.65-3.418c-16.68,0-25.882,6.981-25.882,17.371v.234c0,10.866,10.754,17.125,22.781,17.125,16.029,0,29.751-9.347,29.751-22.85Z" transform="translate(1208.886 720.535)" fill="#fff"/><path d="M288.919,132.843q108.857,0,108.845,118.683V370.255H330.58V251.526c0-19.474-4.549-34.266-13.692-44.481-9.143-10.244-21.433-15.318-36.766-15.318-12.432,0-23.432,2.958-33.127,9.059-9.653,6.013-16.217,12.167-19.839,18.326l-5.346,8.825V370.255h-67.2V140.713h67.2V158.4c1.97-1.894,4.653-4.256,8.071-7s11.03-6.547,22.811-11.358a94.928,94.928,0,0,1,36.227-7.2" transform="translate(490.616 421.467)" fill="#fff"/><path d="M312.959,332.483v2.771q0,17.575,8.284,26.617c5.579,6,13.116,9.038,22.594,9.038,9.765,0,20.519-3.225,32.3-9.747v56.6c-9.44,6.5-22.857,9.781-40.112,9.781-14.786,0-27.622-2.095-38.552-6.034-10.955-4.027-19.547-9.113-25.953-15.326a70.059,70.059,0,0,1-15.462-22.486,100.075,100.075,0,0,1-7.779-25.3,154.9,154.9,0,0,1-2.045-25.912V247.548h-28.9V190.07h28.9V135.846l66.721-18.56V190.07H376.14v57.478H312.959Z" transform="translate(689.666 372.11)" fill="#fff"/><path d="M436.985,134.721h67.138V364.293H436.985v-17.6c-1.911,1.84-4.666,4.173-8.1,6.956-3.393,2.767-10.942,6.547-22.477,11.4a94.532,94.532,0,0,1-36.052,7.173q-108.926,0-108.845-118.729V134.721h66.616V253.492q0,28.779,14,44.251c9.331,10.361,21.55,15.56,36.561,15.56a61.3,61.3,0,0,0,33.026-9.055c9.652-6.071,16.275-11.984,19.927-17.88l5.346-9.2Z" transform="translate(829.822 427.425)" fill="#fff"/><path d="M19.838,445.46V111.8h130.5q55.906,0,90.107,29.355,34.341,29.255,34.3,80.286,0,36.233-18.867,61.68-18.911,25.537-51.66,37.429L285.277,445.46H203.224L133.348,329.673H88.891V445.46ZM152.361,177.1H88.891v91.1h63.47c15.391,0,28.186-4.348,38.272-12.91s15.086-19.866,15.086-33.849c0-14.012-5-24.877-15.086-32.659-10.087-7.824-22.881-11.679-38.272-11.679" transform="translate(62.949 354.695)" fill="#fff"/><path d="M340.21,259.13V377.337H271.666V259.13c0-20.417-5.58-36.92-16.851-49.813Q237.964,190,211.209,189.972q-26.673,0-43.343,19.082c-11.088,12.752-16.638,29.4-16.638,50.076,0,22.545,6.13,39.774,18.145,51.641q18.216,17.907,45.909,17.938a74.666,74.666,0,0,0,22.894-3.376c6.915-2.2,12.361-4.911,16.421-8.116a62.348,62.348,0,0,0,10.011-9.751,41.3,41.3,0,0,0,5.609-8.358l1.448-3.292v68.653c-1.653,1.535-4,3.551-7.057,5.971q-4.5,3.518-22.126,9.476c-11.768,4-24.826,5.925-39.3,5.925q-54.929,0-87.641-37.587Q82.757,310.569,82.73,259.13q0-53.377,35.605-89.616,35.405-36.233,92.874-36.24,57.953,0,93.542,36.24,35.411,36.165,35.459,89.616" transform="translate(262.516 422.834)" fill="#fff"/><path d="M529.3,225.673V111.263h68.715V329.172q0,52.225-39.111,89.516Q519.714,456.048,464,456q-55.192,0-94.556-37.312-39.493-37.229-39.432-89.516,0-52.162,39.174-88.344Q408.332,204.8,464,204.793a114.279,114.279,0,0,1,34.879,5.187c10.884,3.551,18.65,7,23.3,10.519Zm0,103.5v-33.7c-6.418-10.144-15.461-18.214-27.4-24.185a82.707,82.707,0,0,0-37.9-9.026c-20.4,0-37.663,6.376-51.964,19.228-14.2,12.752-21.287,28.7-21.287,47.685,0,19.386,7.086,35.689,21.287,49.162,14.3,13.4,31.562,20.171,51.964,20.171,20.127,0,35.981-6.534,47.72-19.72q17.54-19.6,17.577-49.613" transform="translate(1047.197 353.001)" fill="#fff"/><path d="M479.171,122.228c8.392,7.941,12.578,17.4,12.578,28.529,0,10.97-4.186,20.676-12.578,28.691a42,42,0,0,1-30.114,12.1,42.92,42.92,0,0,1-30.355-12.1c-8.492-8.016-12.8-17.721-12.8-28.691,0-11.128,4.307-20.588,12.8-28.529a43.082,43.082,0,0,1,30.355-11.884,42.16,42.16,0,0,1,30.114,11.884m4.061,328.593H414.963V215.771h68.269Z" transform="translate(1287.999 350.085)" fill="#fff"/><rect width="68.24" height="337.172" transform="translate(1829.438 463.734)" fill="#fff"/></g></svg>