<svg width="170" height="46" viewBox="0 0 170 46" fill="none" xmlns="http://www.w3.org/2000/svg">
<path d="M48.5946 44.7329H38.6889V14.4218H48.5946V44.7329ZM49.7104 6.06678C49.7104 2.71569 46.9947 0 43.6436 0C40.2925 0 37.5769 2.71569 37.5769 6.06678C37.5769 9.41787 40.2925 12.1335 43.6436 12.1335C46.9947 12.1335 49.7104 9.41787 49.7104 6.06678ZM79.5601 41.3213C79.7833 41.1209 80.1917 40.7426 80.725 40.1866C80.9709 41.6731 81.0957 43.1898 81.0957 44.7367H91.0015C91.0015 38.7418 89.6096 33.6698 87.7866 29.5963C89.6096 25.5076 91.0015 20.4205 91.0015 14.4256H81.0957C81.0957 16.0028 80.9671 17.5498 80.7099 19.0627C80.1842 18.5218 79.7757 18.1473 79.5488 17.9431C76.4738 14.9324 72.5024 13.2758 68.3381 13.2758C64.1738 13.2758 60.0928 14.9778 57.0026 18.0679C50.6219 24.4486 50.6219 34.8272 57.0026 41.2079C60.0928 44.298 64.1171 46 68.3381 46C72.5591 46 76.4851 44.3396 79.5601 41.3213ZM72.6726 25.0727C72.7861 25.1862 72.8541 25.2542 72.9752 25.3526C73.1302 25.4887 74.7755 26.9714 76.5305 29.6114C74.7604 32.2968 73.1038 33.8097 72.9487 33.9459C72.839 34.0367 72.7747 34.0972 72.6726 34.2031C70.1612 36.7145 66.5188 36.7145 64.0074 34.2031C61.4884 31.6841 61.4884 27.5879 64.0074 25.0727C65.2631 23.817 66.8025 23.1891 68.3381 23.1891C69.8737 23.1891 71.4169 23.817 72.6688 25.0727H72.6726ZM105.385 0.196686H95.4797V44.7329H105.385V0.196686ZM34.7591 30.7839C34.7591 38.4733 28.5032 44.7329 20.8101 44.7329H0V0.196686H19.9817C27.3004 0.196686 33.2537 6.14997 33.2537 13.4687C33.2537 16.3054 32.3573 18.9379 30.8369 21.0975C33.2651 23.609 34.7591 27.0243 34.7591 30.7877V30.7839ZM19.9817 10.1025H9.90577V16.8387H19.9817C21.8388 16.8387 23.348 15.3296 23.348 13.4725C23.348 11.6154 21.8388 10.1062 19.9817 10.1062V10.1025ZM24.8533 30.7839C24.8533 28.5562 23.0378 26.7407 20.8101 26.7407H9.90199V34.8272H20.8101C23.0378 34.8272 24.8533 33.0117 24.8533 30.7839Z" fill="#163986"/>
<path d="M114.312 26.1658H115.594V29.1311H116.116C117.746 29.1311 118.915 27.7316 118.964 26.1658H120.269C120.269 27.5009 119.633 28.7945 118.495 29.5169L118.34 29.6228L118.506 29.706C119.83 30.4057 120.522 31.8656 120.522 33.3483H119.164C119.164 31.7522 118.257 30.33 116.483 30.33H115.594V33.3483H114.312V26.1658ZM125.995 31.0184H121.861C122.05 31.8014 122.549 32.3649 123.416 32.3649C123.915 32.3649 124.448 32.1644 124.781 31.79L125.677 32.5011C125.125 33.1365 124.248 33.4618 123.4 33.4618C121.74 33.4618 120.613 32.1682 120.613 30.5192C120.613 28.8701 121.729 27.69 123.359 27.69C124.894 27.69 125.988 29.0138 125.988 30.5192V31.0184H125.995ZM124.713 29.9632C124.535 29.2748 124.096 28.7831 123.325 28.7831C122.5 28.7831 122.05 29.1992 121.884 29.9632H124.713ZM132.145 31.0184H128.011C128.2 31.8014 128.699 32.3649 129.566 32.3649C130.065 32.3649 130.598 32.1644 130.931 31.79L131.827 32.5011C131.275 33.1365 130.398 33.4618 129.55 33.4618C127.89 33.4618 126.763 32.1682 126.763 30.5192C126.763 28.8701 127.879 27.69 129.509 27.69C131.044 27.69 132.137 29.0138 132.137 30.5192V31.0184H132.145ZM130.863 29.9632C130.685 29.2748 130.246 28.7831 129.475 28.7831C128.65 28.7831 128.2 29.1992 128.034 29.9632H130.863ZM134.244 27.8754V28.9004C134.755 28.1363 135.443 27.6787 136.445 27.6787C138.03 27.6787 139.191 28.889 139.191 30.4851C139.191 32.1758 138.083 33.4693 136.385 33.4693C135.436 33.4693 134.683 32.9247 134.244 32.2061V35.7765H133.075V33.0722C133.075 32.2477 133.117 31.3929 133.389 30.5456C133.117 29.7627 133.064 28.7301 133.057 27.8716H134.248L134.244 27.8754ZM136.385 32.3233C137.448 32.3233 138.015 31.4685 138.015 30.4851C138.015 29.5774 137.338 28.8058 136.449 28.8058C135.477 28.8058 134.812 29.6833 134.528 30.5494C134.8 31.2908 135.447 32.3233 136.385 32.3233ZM141.086 25.466C141.567 25.466 141.892 25.7497 141.892 26.2376C141.892 26.7255 141.567 27.0017 141.086 27.0017C140.606 27.0017 140.284 26.718 140.284 26.2376C140.284 25.7573 140.617 25.466 141.086 25.466ZM140.511 27.8754H141.722L141.714 33.3445H140.504L140.511 27.8754ZM143.204 33.3445V27.8754H144.373V29.2218C144.74 28.4503 145.353 27.7089 146.408 27.7089C147.607 27.7089 148.556 28.6885 148.556 30.0161V33.3445H147.407V30.0464C147.407 29.3996 147.032 28.889 146.268 28.889C144.986 28.889 144.358 30.6515 144.358 32.3233V33.3445H143.201H143.204ZM150.724 34.256C151.174 34.5473 151.839 34.8083 152.467 34.8083C154.033 34.8083 154.668 33.8173 154.491 32.3876C153.999 33.0646 153.25 33.4731 152.308 33.4731C150.671 33.4731 149.551 32.346 149.551 30.6137C149.551 28.9836 150.667 27.69 152.274 27.69C153.307 27.69 154.071 28.2347 154.51 28.9533V27.8754H155.678C155.678 28.7226 155.656 29.6757 155.353 30.6137C155.572 31.2718 155.739 32.1266 155.678 33.1289C155.554 34.9255 154.438 35.9354 152.41 35.9354C151.692 35.9354 150.845 35.7047 150.198 35.2886L150.72 34.256H150.724ZM152.392 28.8474C151.336 28.8474 150.731 29.6946 150.731 30.591C150.731 31.582 151.442 32.3536 152.339 32.3536C153.311 32.3536 153.976 31.4761 154.26 30.6099C153.999 29.8686 153.33 28.8474 152.392 28.8474ZM114.315 44.7329V36.707H115.484V44.7329H114.315ZM117.572 36.862C118.052 36.862 118.378 37.1457 118.378 37.6336C118.378 38.1215 118.052 38.3976 117.572 38.3976C117.092 38.3976 116.77 38.114 116.77 37.6336C116.77 37.1533 117.103 36.862 117.572 36.862ZM116.997 39.2638H118.207V44.7329H116.997V39.2638ZM120.212 44.7329V40.2358H119.334V39.2638H120.212V38.7607C120.212 37.5504 120.923 36.6011 122.152 36.6011C122.663 36.6011 123.185 36.7902 123.612 37.0928L122.935 37.9891C122.716 37.8341 122.436 37.7395 122.164 37.7395C121.434 37.7395 121.369 38.3749 121.369 38.8666L121.381 39.2638H122.697V40.2358H121.381V44.7329H120.212ZM128.733 42.4182H124.599C124.789 43.2011 125.288 43.7647 126.154 43.7647C126.653 43.7647 127.186 43.5642 127.519 43.1898L128.416 43.9008C127.864 44.5363 126.986 44.8615 126.139 44.8615C124.478 44.8615 123.351 43.568 123.351 41.9189C123.351 40.2699 124.467 39.0898 126.097 39.0898C127.633 39.0898 128.726 40.4136 128.726 41.9189V42.4182H128.733ZM127.447 41.3629C127.27 40.6746 126.831 40.1829 126.059 40.1829C125.235 40.1829 124.785 40.5989 124.618 41.3629H127.447ZM132.671 36.862C133.151 36.862 133.476 37.1457 133.476 37.6336C133.476 38.1215 133.151 38.3976 132.671 38.3976C132.19 38.3976 131.869 38.114 131.869 37.6336C131.869 37.1533 132.202 36.862 132.671 36.862ZM132.096 39.2638H133.306V44.7329H132.096V39.2638ZM134.789 44.7329V39.2638H135.958V40.6103C136.324 39.8387 136.937 39.0974 137.992 39.0974C139.191 39.0974 140.141 40.077 140.141 41.4046V44.7329H138.991V41.4348C138.991 40.788 138.617 40.2774 137.852 40.2774C136.57 40.2774 135.942 42.04 135.942 43.7117V44.7329H134.785H134.789ZM143.446 44.7329V39.2638H144.604V40.6405C144.971 39.8689 145.576 39.0974 146.639 39.0974C147.577 39.0974 148.299 39.7668 148.496 40.6519C148.81 39.8462 149.54 39.0974 150.603 39.0974C151.907 39.0974 152.543 40.1829 152.543 41.4046V44.7329H151.385V41.4046C151.385 40.8296 151.147 40.2774 150.406 40.2774C149.112 40.2774 148.568 41.9681 148.56 43.7344V44.7367H147.422V41.4083C147.422 40.8637 147.18 40.2812 146.556 40.2812C145.209 40.2812 144.604 41.9605 144.593 43.7155V44.7367H143.443L143.446 44.7329ZM154.513 36.862C154.994 36.862 155.319 37.1457 155.319 37.6336C155.319 38.1215 154.994 38.3976 154.513 38.3976C154.033 38.3976 153.712 38.114 153.712 37.6336C153.712 37.1533 154.044 36.862 154.513 36.862ZM153.938 39.2638H155.149V44.7329H153.938V39.2638ZM156.631 44.7329V39.2638H157.8V40.6103C158.167 39.8387 158.78 39.0974 159.835 39.0974C161.034 39.0974 161.983 40.077 161.983 41.4046V44.7329H160.834V41.4348C160.834 40.788 160.459 40.2774 159.695 40.2774C158.413 40.2774 157.785 42.04 157.785 43.7117V44.7329H156.628H156.631ZM167.929 44.7443V43.6588C167.479 44.3698 166.738 44.8578 165.735 44.8578C164.056 44.8578 162.978 43.6474 162.978 42.0513C162.978 40.3606 163.992 39.0974 165.766 39.0974C166.715 39.0974 167.54 39.6912 167.937 40.3493V36.707H169.105V39.2108C169.105 40.1186 169.083 41.0793 168.78 42.0173C169.041 42.8948 169.105 43.8214 169.113 44.7405H167.922L167.929 44.7443ZM165.788 40.2358C164.733 40.2358 164.17 41.0604 164.17 42.04C164.17 42.9477 164.858 43.742 165.754 43.742C166.726 43.742 167.362 42.8872 167.645 42.0211C167.373 41.1965 166.726 40.2358 165.788 40.2358Z" fill="#163986"/>
</svg>
